REM COMMENT "Generated by IcecastMetadataRecorder https://github.com/eshaz/icecast-metadata-js"
REM BR "16"
REM METAINT "64"
REM DATE "2020-07-29T21:16:11.222Z"
TITLE "isics-all"
FILE "isics-all.mp3" WAVE
  TRACK 1 AUDIO
    TITLE "2020-07-29T21:34:27.278Z TO:48696 Polk County - UnityPoint Health Security FROM:10779039"
    INDEX 01 18:16:04
  TRACK 2 AUDIO
    TITLE "2020-07-29T21:34:30.734Z TO:48696 Polk County - UnityPoint Health Security FROM:120"
    INDEX 01 18:19:38
  TRACK 3 AUDIO
    TITLE "2020-07-29T21:34:32.894Z TO:48696 Polk County - UnityPoint Health Security FROM:10779026"
    INDEX 01 18:21:50
  TRACK 4 AUDIO
    TITLE "2020-07-29T21:34:34.982Z TO:1101 Polk County - Westcom Law Enforcement 1 FROM:7609"
    INDEX 01 18:23:57
  TRACK 5 AUDIO
    TITLE "2020-07-29T21:34:38.438Z TO:1101 Polk County - Westcom Law Enforcement 1 FROM:1004"
    INDEX 01 18:27:16
  TRACK 6 AUDIO
    TITLE "2020-07-29T21:34:40.526Z TO:48696 Polk County - UnityPoint Health Security FROM:120"
    INDEX 01 18:29:23
  TRACK 7 AUDIO
    TITLE "2020-07-29T21:34:41.246Z TO:1101 Polk County - Westcom Law Enforcement 1 FROM:1004"
    INDEX 01 18:30:02
  TRACK 8 AUDIO
    TITLE "2020-07-29T21:34:44.774Z TO:48696 Polk County - UnityPoint Health Security FROM:10779026"
    INDEX 01 18:33:41
  TRACK 9 AUDIO
    TITLE "2020-07-29T21:34:47.582Z TO:1102 Polk County - Westcom Law Enforcement 2 FROM:UNKNOWN"
    INDEX 01 18:36:27
  TRACK 10 AUDIO
    TITLE "END"
    INDEX 01 18:37:55